# xmcd
#
# Track frame offsets:
#	150
#	10680
#	20748
#	32436
#	41928
#	52983
#	62451
#	73743
#	85145
#	96402
#	106060
#	115487
#	124908
#	134992
#	146792
#	157156
#	167112
#	177913
#	189725
#	198290
#	206344
#	216526
#	228334
#	239916
#	249414
#	257754
#
# Disc length: 3576 seconds
#
# Revision: 0
# Processed by: cddbd v1.4PL0 Copyright (c) Steve Scherf et al.
# Submitted via: EasyCDDAExtractor 4.6.0.1
#
DISCID=8d0df61a
DTITLE=Various Artist - Explosive Doo-Wop  Vol 10
DYEAR=1900
DGENRE=Blues
TTITLE0=Unique Echos - Zoom 
TTITLE1=Hi-Fives - How Can I Win
TTITLE2=Hi-Lites (Ronnie and the) - The Fact Of The Matter
TTITLE3=Valentines (Little Tom and His) - School Girl
TTITLE4=Altairs - Groovie Time
TTITLE5=Enchanters - There Goes (A Pretty Girl)
TTITLE6=Del Vikings - I Hear Bells
TTITLE7=Reflections - Rocket To The Moon
TTITLE8=Five Sounds - Good Time Baby
TTITLE9=Keens (Rick and the) - Peanuts
TTITLE10=Sandpipers - Ali Baba
TTITLE11=Royals (Richie and the) - We're Strollin'
TTITLE12=Del Cades - Worlds Fair USA
TTITLE13=Jim, Jeff and Jan - Star Bright
TTITLE14=Four Cheers - Perriwinkle Blue
TTITLE15=Glenwoods - Elaine
TTITLE16=J's (Jimmy J and the) - Please Be My Girlfriend
TTITLE17=Five Stars - Hey Juanita
TTITLE18=Comic Books - Manuel
TTITLE19=Del-Aires - Lost My Job
TTITLE20=El Reys - Beverly
TTITLE21=Parakeets - Shangri-La
TTITLE22=Swinging Hearts - Something Made Me Stop
TTITLE23=Classmates - Pretty Little Pet
TTITLE24=Teen Tones - Gyspy Boogie
TTITLE25=Preludes - Oh Please, Genie
EXTD=
EXTT0=
EXTT1=
EXTT2=
EXTT3=
EXTT4=
EXTT5=
EXTT6=
EXTT7=
EXTT8=
EXTT9=
EXTT10=
EXTT11=
EXTT12=
EXTT13=
EXTT14=
EXTT15=
EXTT16=
EXTT17=
EXTT18=
EXTT19=
EXTT20=
EXTT21=
EXTT22=
EXTT23=
EXTT24=
EXTT25=
PLAYORDER=
